<?xml version="1.0" encoding="UTF-8"?>
<svg id="Capa_2" data-name="Capa 2" xmlns="http://www.w3.org/2000/svg" xmlns:xlink="http://www.w3.org/1999/xlink" viewBox="0 0 101.95 73.15">
  <defs>
    <style>
      .cls-1 {
        fill: #fdfefc;
      }

      .cls-2 {
        clip-path: url(#clippath-1);
      }

      .cls-3 {
        clip-path: url(#clippath);
      }

      .cls-4 {
        fill: none;
      }
    </style>
    <clipPath id="clippath">
      <rect class="cls-4" x="55.44" width="46.51" height="73.15"/>
    </clipPath>
    <clipPath id="clippath-1">
      <rect class="cls-4" y="10.48" width="50.11" height="53.33"/>
    </clipPath>
  </defs>
  <g id="Capa_1-2" data-name="Capa 1">
    <g>
      <g>
        <path class="cls-1" d="m75.68,27.18c0-.45-.36-.82-.81-.82s-.82.36-.82.82c0,12.5-10.17,22.67-22.67,22.67s-22.67-10.17-22.67-22.67S38.89,4.51,51.38,4.51c5.91,0,11.5,2.26,15.75,6.37,1.33,1.27,5.41,6.08,2.18,14.71-2.92,7.79-7.09,8.04-7.11,8.04-2.81,0-5.1-2.29-5.1-5.11v-4.43c.01-.35.01-.7,0-1.04v-8.47c0-.45-.36-.82-.82-.82s-.82.36-.82.82v2.95c-.72-1.03-1.65-1.79-2.76-2.18-4.17-1.49-9.22,2.36-11.51,8.77-1.07,2.98-1.34,6.07-.77,8.68.6,2.74,2.06,4.66,4.11,5.4.6.22,1.23.32,1.86.32,3.52,0,7.26-3.23,9.31-8.21.79,2.86,3.4,4.96,6.51,4.96.22,0,5.29-.18,8.63-9.1,3.58-9.57-1.06-15.03-2.57-16.46-4.55-4.4-10.55-6.82-16.88-6.82-13.4,0-24.3,10.9-24.3,24.3s10.9,24.3,24.3,24.3,24.3-10.9,24.3-24.3Z"/>
        <g class="cls-3">
          <path class="cls-1" d="m100.27,10.15c-.88-3.34-3.11-5.98-6.15-7.24l-5.67-2.35c-1.29-.54-2.75-.48-4.1.17-1.38.66-2.48,1.85-3.11,3.35l-2.58,6.21c-.62,1.5-.69,3.12-.18,4.56.49,1.42,1.48,2.49,2.77,3.03,2.8,1.16,4.48,4.05,4.28,7.34-.2,3.34-.89,8.4-3.02,13.54-2.13,5.14-5.23,9.19-7.46,11.69-2.2,2.47-5.43,3.31-8.22,2.15-.59-.24-1.2-.36-1.82-.36-2.2,0-4.39,1.49-5.39,3.88l-2.58,6.21c-1.28,3.06-.11,6.47,2.59,7.59l5.67,2.36c3.03,1.26,6.48.98,9.47-.76,5.36-3.12,13.24-10.43,20.34-27.52,7.1-17.09,6.72-27.83,5.16-33.83Z"/>
        </g>
        <g class="cls-2">
          <path class="cls-1" d="m48.61,53.4c-.45,0-.81.36-.81.82v6.86l-10.46-8.83c-.15-.13-.33-.19-.53-.19H6.06c-2.44,0-4.42-1.98-4.42-4.42v-31.08c0-2.44,1.98-4.42,4.42-4.42h23.65c.45,0,.82-.36.82-.81s-.36-.82-.82-.82H6.06c-3.34,0-6.06,2.71-6.06,6.05v31.08c0,3.34,2.72,6.06,6.06,6.06h30.46l11.57,9.77c.15.13.34.19.53.19.12,0,.23-.03.34-.08.29-.14.47-.42.47-.74v-8.62c0-.45-.36-.82-.82-.82Z"/>
        </g>
      </g>
      <path class="cls-1" d="m22.84,22.73c.45,0,.82-.36.82-.81s-.37-.82-.82-.82h-12.55c-.45,0-.82.36-.82.82s.36.81.82.81h12.55Z"/>
      <path class="cls-1" d="m4.95,34.14c0,.45.36.81.82.81h18.95c.45,0,.81-.36.81-.81s-.36-.82-.81-.82H5.77c-.45,0-.82.36-.82.82Z"/>
    </g>
  </g>
</svg>