<?xml version="1.0" encoding="UTF-8"?>
<svg id="Capa_2" data-name="Capa 2" xmlns="http://www.w3.org/2000/svg" viewBox="0 0 128.41 27.9">
  <defs>
    <style>
      .cls-1 {
        fill: #9c9b9b;
        font-size: 10.98px;
      }

      .cls-1, .cls-2, .cls-3 {
        font-family: AvenirNextLTPro-Bold, 'Avenir Next LT Pro';
        font-weight: 700;
      }

      .cls-4 {
        fill: #909090;
      }

      .cls-2 {
        letter-spacing: -.02em;
      }

      .cls-2, .cls-5, .cls-3 {
        fill: #7c7b7b;
      }

      .cls-2, .cls-3 {
        font-size: 25.19px;
      }

      .cls-6 {
        fill: #bbbbba;
      }

      .cls-7 {
        fill: #e2e1e1;
      }

      .cls-8 {
        fill: #e74928;
      }
    </style>
  </defs>
  <g id="Capa_1-2" data-name="Capa 1">
    <g>
      <path class="cls-8" d="m8.91,14.95h4.16c-.42,1.72-1.92,2.73-4.08,2.73-3.09,0-4.86-2-4.86-5.48s1.78-5.55,4.76-5.55c2.09,0,3.34.48,3.95,2.23l.08.23,3.54-1.09-.09-.25c-1.21-3.24-3.71-4.54-7.5-4.54C3.48,3.24,0,6.75,0,12.2s3.47,8.87,8.84,8.87,8.24-3.13,8.24-8.36v-1.04h-8.18v3.29Z"/>
      <polygon class="cls-7" points="111.21 3.86 108.74 8.72 108.79 11.43 112.61 3.84 111.21 3.86"/>
      <polygon class="cls-4" points="107.23 3.84 98.21 21.64 102.29 21.64 111.31 3.84 107.23 3.84"/>
      <polygon class="cls-6" points="101.85 3.91 92.83 21.7 96.91 21.7 105.92 3.91 101.85 3.91"/>
      <polygon class="cls-7" points="108.79 8.8 108.79 11.43 103.71 21.7 102.3 21.7 108.79 8.8"/>
      <text class="cls-3" transform="translate(26.06 21.51)"><tspan x="0" y="0">D</tspan></text>
      <text class="cls-3" transform="translate(65.32 21.76)"><tspan x="0" y="0">R</tspan></text>
      <text class="cls-2" transform="translate(81.94 21.7)"><tspan x="0" y="0">T</tspan></text>
      <text class="cls-1" transform="translate(26.58 17.24) rotate(-90) scale(1.96 1)"><tspan x="0" y="0">I</tspan></text>
      <path class="cls-5" d="m124.07,21.62l-1.8-3.58-8.84-.05-1.94,3.65h-4.41l8.74-17.81h3.78s8.81,17.81,8.81,17.81l-4.35-.02Zm-6.31-12.76l-2.79,5.83,5.69-.02-2.9-5.81Z"/>
      <path class="cls-5" d="m61.28,21.62l-1.8-3.58-8.84-.05-1.94,3.65h-4.41L53.03,3.84h3.78s8.81,17.81,8.81,17.81l-4.35-.02Zm-6.31-12.76l-2.79,5.83,5.69-.02-2.9-5.81Z"/>
    </g>
  </g>
</svg>