<?xml version="1.0" encoding="UTF-8"?>
<svg id="Capa_2" data-name="Capa 2" xmlns="http://www.w3.org/2000/svg" viewBox="0 0 7.37 7.37">
  <defs>
    <style>
      .cls-1 {
        fill: #f9efed;
      }
    </style>
  </defs>
  <g id="Capa_1-2" data-name="Capa 1">
    <path class="cls-1" d="m5.95,0H1.42C.64,0,0,.64,0,1.43v4.52c0,.78.64,1.42,1.42,1.42h4.52c.78,0,1.42-.64,1.42-1.42V1.43c0-.78-.64-1.43-1.42-1.43Zm.41.85h.16v1.25h-1.25s0-1.24,0-1.24h1.09Zm-3.72,2.08c.23-.33.62-.54,1.05-.54s.82.21,1.05.54c.15.21.24.47.24.76,0,.72-.58,1.3-1.3,1.3s-1.3-.58-1.3-1.3c0-.28.09-.54.25-.76Zm4.02,3.02c0,.39-.32.71-.71.71H1.42c-.39,0-.71-.32-.71-.71v-3.02h1.1c-.1.23-.15.49-.15.76,0,1.11.9,2.02,2.01,2.02s2.02-.9,2.02-2.02c0-.27-.05-.52-.15-.76h1.1v3.02Z"/>
  </g>
</svg>