<?xml version="1.0" encoding="UTF-8"?>
<svg id="Capa_2" data-name="Capa 2" xmlns="http://www.w3.org/2000/svg" viewBox="0 0 7.37 7.26">
  <defs>
    <style>
      .cls-1 {
        fill: #f9efed;
      }
    </style>
  </defs>
  <g id="Capa_1-2" data-name="Capa 1">
    <g>
      <path class="cls-1" d="m.84,0C.33,0,0,.34,0,.79s.32.79.82.79c.53,0,.85-.35.85-.79-.01-.45-.32-.79-.83-.79Z"/>
      <rect class="cls-1" x=".04" y="2.2" width="1.57" height="5.07"/>
      <path class="cls-1" d="m5.55,2.08c-.85,0-1.36.49-1.56.82h-.03l-.07-.7h-1.37c.02.46.04.98.04,1.62v3.45h1.57v-2.92c0-.15.01-.29.05-.39.11-.29.37-.59.81-.59.57,0,.8.45.8,1.1v2.81h1.57v-2.99c0-1.49-.78-2.19-1.81-2.19Z"/>
    </g>
  </g>
</svg>