<?xml version="1.0" encoding="UTF-8"?>
<svg id="Capa_2" data-name="Capa 2" xmlns="http://www.w3.org/2000/svg" viewBox="0 0 98.24 19.58">
  <defs>
    <style>
      .cls-1 {
        fill: #f9efed;
      }

      .cls-2 {
        opacity: .2;
      }
    </style>
  </defs>
  <g id="Capa_1-2" data-name="Capa 1">
    <g>
      <polygon class="cls-1" points="23.46 .12 13.6 19.58 18.06 19.58 27.91 .12 23.46 .12"/>
      <g>
        <path class="cls-1" d="m9.4,7.73c-2.27-.48-4.22-.89-4.22-2.4,0-1.17,1.16-1.96,2.88-1.96,2.04,0,3.29.87,3.82,2.65l.08.26,3.77-1.06-.08-.3c-.89-3.22-3.51-4.92-7.59-4.92C3.52,0,.7,2.24.7,5.86c0,4.23,3.83,5.08,6.91,5.76,2.2.49,4.09.9,4.09,2.35,0,1.22-1.29,2.07-3.15,2.07-2.22,0-3.79-1.17-4.31-3.22l-.07-.27-4.17,1.06.07.27c1,3.63,3.99,5.63,8.4,5.63,4.86,0,7.89-2.34,7.89-6.1,0-4.23-3.86-5.04-6.97-5.69"/>
        <polygon class="cls-1" points="44.79 .12 44.79 14.4 37.09 .12 31.05 .12 31.05 19.53 35.34 19.53 35.34 5.23 43.05 19.53 49.09 19.53 49.09 .12 44.79 .12"/>
        <path class="cls-1" d="m60.25,12.83h4.53c-.45,1.87-2.09,2.97-4.44,2.97-3.36,0-5.29-2.17-5.29-5.97s1.94-6.05,5.18-6.05c2.28,0,3.64.52,4.3,2.43l.09.25,3.85-1.18-.1-.27C67.06,1.49,64.33.08,60.2.08c-5.86,0-9.65,3.83-9.65,9.76s3.78,9.65,9.63,9.65,8.97-3.4,8.97-9.1v-1.13h-8.9v3.58Z"/>
        <rect class="cls-1" x="93.76" y=".08" width="4.48" height="19.4"/>
        <polygon class="cls-1" points="81.5 13.86 77.11 .08 70.68 .08 70.68 19.49 74.81 19.49 74.81 4.95 79.06 19.49 83.94 19.49 88.18 4.95 88.18 19.49 92.31 19.49 92.31 .08 85.88 .08 81.5 13.86"/>
      </g>
      <g class="cls-2">
        <polygon class="cls-1" points="23.95 19.58 25.49 19.58 31.05 8.35 31.05 5.48 23.95 19.58"/>
      </g>
      <polygon class="cls-1" points="33.83 .12 31.05 5.39 31.05 8.35 35.35 .12 33.83 .12"/>
      <polygon class="cls-1" points="29.37 .12 19.52 19.58 23.97 19.58 33.83 .12 29.37 .12"/>
    </g>
  </g>
</svg>