<?xml version="1.0" encoding="UTF-8"?>
<svg id="Capa_2" data-name="Capa 2" xmlns="http://www.w3.org/2000/svg" xmlns:xlink="http://www.w3.org/1999/xlink" viewBox="0 0 206.09 56.33">
  <defs>
    <style>
      .cls-1 {
        letter-spacing: .65em;
      }

      .cls-2, .cls-3, .cls-4 {
        fill: #f9efed;
      }

      .cls-5 {
        opacity: .2;
      }

      .cls-3 {
        font-family: AvenirNextLTPro-Bold, 'Avenir Next LT Pro';
        font-size: 10.25px;
        font-weight: 700;
      }

      .cls-6 {
        fill: #969596;
      }

      .cls-7 {
        letter-spacing: .68em;
      }

      .cls-8 {
        clip-path: url(#clippath);
      }

      .cls-9, .cls-10 {
        fill: none;
      }

      .cls-11 {
        letter-spacing: .65em;
      }

      .cls-12 {
        letter-spacing: .68em;
      }

      .cls-4 {
        font-family: AvenirNext-DemiBold, 'Avenir Next';
        font-size: 5.56px;
        font-weight: 300;
      }

      .cls-13 {
        letter-spacing: .68em;
      }

      .cls-10 {
        stroke: #f9efed;
        stroke-miterlimit: 10;
      }

      .cls-14 {
        letter-spacing: .62em;
      }

      .cls-15 {
        letter-spacing: .68em;
      }
    </style>
    <clipPath id="clippath">
      <rect class="cls-9" x="46.4" y="17.5" width="13.64" height="27.1"/>
    </clipPath>
  </defs>
  <g id="Capa_1-2" data-name="Capa 1">
    <g>
      <path class="cls-2" d="m18.42,21.82c-4.36-.91-8.12-1.7-8.12-4.61,0-2.25,2.23-3.77,5.54-3.77,3.92,0,6.32,1.66,7.34,5.09l.15.51,7.25-2.04-.15-.58c-1.71-6.18-6.75-9.45-14.58-9.45C7.13,6.97,1.71,11.28,1.71,18.22c0,8.14,7.37,9.76,13.29,11.07,4.22.93,7.87,1.74,7.87,4.52,0,2.34-2.49,3.97-6.05,3.97-4.27,0-7.29-2.25-8.29-6.18l-.13-.51L.37,33.13l.15.52c1.92,6.97,7.66,10.81,16.15,10.81,9.35,0,15.16-4.49,15.16-11.71,0-8.12-7.43-9.68-13.39-10.93"/>
      <polygon class="cls-2" points="86.46 7.2 86.46 34.65 71.66 7.2 60.05 7.2 60.05 44.51 68.29 44.51 68.29 17.01 83.1 44.51 94.71 44.51 94.71 7.2 86.46 7.2"/>
      <path class="cls-2" d="m116.16,31.63h8.7c-.87,3.59-4.01,5.71-8.53,5.71-6.46,0-10.16-4.18-10.16-11.47s3.72-11.62,9.96-11.62c4.38,0,6.99,1,8.27,4.67l.17.47,7.4-2.27-.19-.52c-2.52-6.78-7.77-9.49-15.7-9.49-11.27,0-18.55,7.36-18.55,18.75s7.26,18.55,18.5,18.55,17.24-6.54,17.24-17.5v-2.18h-17.11v6.88Z"/>
      <rect class="cls-2" x="180.57" y="7.12" width="8.62" height="37.28"/>
      <polygon class="cls-2" points="157 33.6 148.57 7.12 136.22 7.12 136.22 44.42 144.15 44.42 144.15 16.48 152.31 44.42 161.69 44.42 169.85 16.48 169.85 44.42 177.78 44.42 177.78 7.12 165.43 7.12 157 33.6"/>
      <text class="cls-4" transform="translate(0 53.79) scale(1.06 1)"><tspan class="cls-15" x="0" y="0">LABOR</tspan><tspan class="cls-14" x="37.38" y="0">A</tspan><tspan class="cls-11" x="44.73" y="0">T</tspan><tspan class="cls-12" x="51.48" y="0">O</tspan><tspan class="cls-15" x="59.95" y="0">R</tspan><tspan class="cls-12" x="67.21" y="0">I</tspan><tspan class="cls-15" x="72.53" y="0">O</tspan><tspan class="cls-12" x="81.01" y="0"> </tspan><tspan class="cls-15" x="86.16" y="0">DE</tspan><tspan class="cls-7" x="101.32" y="0"> </tspan><tspan class="cls-13" x="106.46" y="0">MET</tspan><tspan class="cls-12" x="129.41" y="0">R</tspan><tspan class="cls-15" x="136.66" y="0">O</tspan><tspan class="cls-1" x="145.14" y="0">L</tspan><tspan class="cls-12" x="151.57" y="0">OGÍ</tspan><tspan x="173.43" y="0">A</tspan></text>
      <g class="cls-5">
        <g class="cls-8">
          <polygon class="cls-6" points="60.04 17.5 60.04 23.02 49.36 44.59 46.4 44.59 60.04 17.5"/>
        </g>
      </g>
      <polygon class="cls-6" points="65.39 7.2 60.04 17.32 60.04 23.02 68.31 7.2 65.39 7.2"/>
      <polygon class="cls-2" points="45.46 7.2 26.51 44.59 35.07 44.59 54.02 7.2 45.46 7.2"/>
      <polygon class="cls-2" points="56.82 7.2 37.88 44.59 46.44 44.59 65.38 7.2 56.82 7.2"/>
      <text class="cls-3" transform="translate(195.6 10.64)"><tspan x="0" y="0">R</tspan></text>
      <circle class="cls-10" cx="198.88" cy="7.2" r="6.7"/>
    </g>
  </g>
</svg>