<?xml version="1.0" encoding="utf-8"?>
<!-- Generator: Adobe Illustrator 27.1.1, SVG Export Plug-In . SVG Version: 6.00 Build 0)  -->
<svg version="1.1" id="Capa_1" xmlns="http://www.w3.org/2000/svg" xmlns:xlink="http://www.w3.org/1999/xlink" x="0px" y="0px"
	 viewBox="0 0 433.8 118.5" style="enable-background:new 0 0 433.8 118.5;" xml:space="preserve">
<style type="text/css">
	.st0{fill:#E84926;}
	.st1{fill:#888B8D;}
	.st2{font-family:'AvenirNext-UltraLight';}
	.st3{font-size:11.7px;}
	.st4{letter-spacing:7.5;}
	.st5{letter-spacing:6.6;}
	.st6{opacity:0.2;}
	.st7{clip-path:url(#SVGID_00000090280190841584684900000005563779925104760195_);}
	.st8{fill:#979797;}
	.st9{fill:#E94A28;}
	.st10{fill:#A8A8A8;}
	.st11{font-family:'AvenirNextCyr-Bold';}
	.st12{font-size:21.59px;}
	.st13{fill:none;stroke:#E94A28;stroke-width:2;stroke-miterlimit:10;}
	.st14{fill:#FFFFFF;}
	.st15{clip-path:url(#SVGID_00000148628058163141779210000003848058092566507698_);}
	.st16{fill:none;stroke:#FFFFFF;stroke-width:2;stroke-miterlimit:10;}
</style>
<path class="st0" d="M38.8,45.9c-9.2-1.9-17.1-3.6-17.1-9.7c0-4.8,4.7-7.9,11.7-7.9c8.3,0,13.3,3.5,15.5,10.7l0.3,1.1l15.3-4.3
	l-0.3-1.2c-3.6-13-14.2-19.9-30.7-19.9C15,14.6,3.6,23.7,3.6,38.3c0,17.1,15.5,20.6,28,23.3c8.9,2,16.6,3.7,16.6,9.5
	c0,4.9-5.2,8.4-12.7,8.4c-9,0-15.4-4.7-17.5-13l-0.3-1.1L0.8,69.7l0.3,1.1c4.1,14.7,16.1,22.8,34,22.8c19.7,0,31.9-9.4,31.9-24.7
	C67,51.8,51.4,48.5,38.8,45.9"/>
<polygon class="st0" points="182,15.1 182,72.9 150.9,15.1 126.4,15.1 126.4,93.7 143.8,93.7 143.8,35.8 174.9,93.7 199.4,93.7 
	199.4,15.1 "/>
<path class="st0" d="M244.5,66.5h18.3c-1.8,7.6-8.4,12-18,12c-13.6,0-21.4-8.8-21.4-24.2s7.8-24.5,21-24.5c9.2,0,14.7,2.1,17.4,9.8
	l0.4,1l15.6-4.8l-0.4-1.1c-5.3-14.3-16.4-20-33-20c-23.7,0-39.1,15.5-39.1,39.5s15.3,39.1,38.9,39.1s36.3-13.8,36.3-36.8V52h-36
	L244.5,66.5L244.5,66.5z"/>
<rect x="380.1" y="14.9" class="st0" width="18.1" height="78.5"/>
<polygon class="st0" points="330.5,70.7 312.8,14.9 286.8,14.9 286.8,93.5 303.5,93.5 303.5,34.7 320.6,93.5 340.4,93.5 357.6,34.7 
	357.6,93.5 374.3,93.5 374.3,14.9 348.3,14.9 "/>
<text transform="matrix(1.06 0 0 1 -4.882812e-04 113.19)" class="st1 st2 st3 st4">LABOR</text>
<text transform="matrix(1.06 0 0 1 83.4111 113.19)" class="st1 st2 st3 st5">A</text>
<text transform="matrix(1.06 0 0 1 99.8096 113.19)" class="st1 st2 st3 st4">T</text>
<text transform="matrix(1.06 0 0 1 114.8721 113.19)" class="st1 st2 st3 st4">O</text>
<text transform="matrix(1.06 0 0 1 133.7822 113.19)" class="st1 st2 st3 st4">R</text>
<text transform="matrix(1.06 0 0 1 149.979 113.19)" class="st1 st2 st3 st4">I</text>
<text transform="matrix(1.06 0 0 1 161.8618 113.19)" class="st1 st2 st3 st4">O</text>
<text transform="matrix(1.06 0 0 1 180.7827 113.19)" class="st1 st2 st3 st4"> </text>
<text transform="matrix(1.06 0 0 1 192.2627 113.19)" class="st1 st2 st3 st4">DE</text>
<text transform="matrix(1.06 0 0 1 226.0977 113.19)" class="st1 st2 st3 st4"> </text>
<text transform="matrix(1.06 0 0 1 237.5771 113.19)" class="st1 st2 st3 st4">MET</text>
<text transform="matrix(1.06 0 0 1 288.7754 113.19)" class="st1 st2 st3 st4">R</text>
<text transform="matrix(1.06 0 0 1 304.9619 113.19)" class="st1 st2 st3 st4">O</text>
<text transform="matrix(1.06 0 0 1 323.8828 113.19)" class="st1 st2 st3 st4">L</text>
<text transform="matrix(1.06 0 0 1 338.2461 113.19)" class="st1 st2 st3 st4">OG</text>
<text transform="matrix(1.06 0 0 1 375.123 113.19)" class="st1 st2 st3 st4">Í</text>
<text transform="matrix(1.06 0 0 1 387.0166 113.19)" class="st1 st2 st3">A</text>
<g class="st6">
	<g>
		<defs>
			<rect id="SVGID_1_" x="97.7" y="36.8" width="28.7" height="57.1"/>
		</defs>
		<clipPath id="SVGID_00000067226413766507478900000000876562030828552842_">
			<use xlink:href="#SVGID_1_"  style="overflow:visible;"/>
		</clipPath>
		<g style="clip-path:url(#SVGID_00000067226413766507478900000000876562030828552842_);">
			<polygon class="st8" points="126.4,36.8 126.4,48.4 103.9,93.8 97.7,93.8 			"/>
		</g>
	</g>
</g>
<polygon class="st9" points="137.7,15.1 126.4,36.4 126.4,48.4 143.8,15.1 "/>
<polygon class="st10" points="95.7,15.1 55.8,93.8 73.8,93.8 113.7,15.1 "/>
<polygon class="st1" points="119.6,15.1 79.7,93.8 97.8,93.8 137.6,15.1 "/>
<text transform="matrix(1 0 0 1 411.79 22.34)" class="st0 st11 st12">R</text>
<circle class="st13" cx="418.7" cy="15.1" r="14.1"/>
<path class="st14" d="M39.3-127.2c-9.2-1.9-17.1-3.6-17.1-9.7c0-4.8,4.7-7.9,11.7-7.9c8.3,0,13.3,3.5,15.5,10.7l0.3,1.1l15.3-4.3
	l-0.3-1.2c-3.6-13-14.2-19.9-30.7-19.9c-18.4,0-29.8,9.1-29.8,23.7c0,17.1,15.5,20.6,28,23.3c8.9,2,16.6,3.7,16.6,9.5
	c0,4.9-5.2,8.4-12.7,8.4c-9,0-15.4-4.7-17.5-13l-0.3-1.1l-16.9,4.3l0.3,1.1c4.1,14.7,16.1,22.8,34,22.8c19.7,0,31.9-9.4,31.9-24.7
	C67.5-121.3,51.8-124.6,39.3-127.2"/>
<polygon class="st14" points="182.5,-158 182.5,-100.2 151.3,-158 126.9,-158 126.9,-79.5 144.3,-79.5 144.3,-137.3 175.4,-79.5 
	199.9,-79.5 199.9,-158 "/>
<path class="st14" d="M245-106.6h18.3c-1.8,7.6-8.4,12-18,12c-13.6,0-21.4-8.8-21.4-24.2s7.8-24.5,21-24.5c9.2,0,14.7,2.1,17.4,9.8
	l0.4,1l15.6-4.8l-0.4-1.1c-5.3-14.3-16.4-20-33-20c-23.7,0-39.1,15.5-39.1,39.5s15.3,39.1,38.9,39.1S281-93.4,281-116.5v-4.6h-36
	L245-106.6L245-106.6z"/>
<rect x="380.6" y="-158.2" class="st14" width="18.1" height="78.5"/>
<polygon class="st14" points="331,-102.4 313.3,-158.2 287.3,-158.2 287.3,-79.6 303.9,-79.6 303.9,-138.5 321.1,-79.6 340.9,-79.6 
	358.1,-138.5 358.1,-79.6 374.7,-79.6 374.7,-158.2 348.7,-158.2 "/>
<text transform="matrix(1.06 0 0 1 0.4756 -59.9164)" class="st14 st2 st3 st4">LABOR</text>
<text transform="matrix(1.06 0 0 1 83.8872 -59.9164)" class="st14 st2 st3 st5">A</text>
<text transform="matrix(1.06 0 0 1 100.2857 -59.9164)" class="st14 st2 st3 st4">T</text>
<text transform="matrix(1.06 0 0 1 115.3482 -59.9164)" class="st14 st2 st3 st4">O</text>
<text transform="matrix(1.06 0 0 1 134.2583 -59.9164)" class="st14 st2 st3 st4">R</text>
<text transform="matrix(1.06 0 0 1 150.4551 -59.9164)" class="st14 st2 st3 st4">I</text>
<text transform="matrix(1.06 0 0 1 162.3379 -59.9164)" class="st14 st2 st3 st4">O</text>
<text transform="matrix(1.06 0 0 1 181.2588 -59.9164)" class="st14 st2 st3 st4"> </text>
<text transform="matrix(1.06 0 0 1 192.7388 -59.9164)" class="st14 st2 st3 st4">DE</text>
<text transform="matrix(1.06 0 0 1 226.5738 -59.9164)" class="st14 st2 st3 st4"> </text>
<text transform="matrix(1.06 0 0 1 238.0533 -59.9164)" class="st14 st2 st3 st4">MET</text>
<text transform="matrix(1.06 0 0 1 289.2515 -59.9164)" class="st14 st2 st3 st4">R</text>
<text transform="matrix(1.06 0 0 1 305.438 -59.9164)" class="st14 st2 st3 st4">O</text>
<text transform="matrix(1.06 0 0 1 324.3589 -59.9164)" class="st14 st2 st3 st4">L</text>
<text transform="matrix(1.06 0 0 1 338.7222 -59.9164)" class="st14 st2 st3 st4">OG</text>
<text transform="matrix(1.06 0 0 1 375.5992 -59.9164)" class="st14 st2 st3 st4">Í</text>
<text transform="matrix(1.06 0 0 1 387.4927 -59.9164)" class="st14 st2 st3">A</text>
<g class="st6">
	<g>
		<defs>
			<rect id="SVGID_00000142143313519526457360000004593745789944430781_" x="98.2" y="-136.3" width="28.7" height="57.1"/>
		</defs>
		<clipPath id="SVGID_00000098223289849146198030000000138064887088671631_">
			<use xlink:href="#SVGID_00000142143313519526457360000004593745789944430781_"  style="overflow:visible;"/>
		</clipPath>
		<g style="clip-path:url(#SVGID_00000098223289849146198030000000138064887088671631_);">
			<polygon class="st8" points="126.9,-136.3 126.9,-124.7 104.4,-79.3 98.2,-79.3 			"/>
		</g>
	</g>
</g>
<polygon class="st8" points="138.1,-158 126.9,-136.7 126.9,-124.7 144.3,-158 "/>
<polygon class="st10" points="96.2,-158 56.3,-79.3 74.3,-79.3 114.2,-158 "/>
<polygon class="st1" points="120.1,-158 80.2,-79.3 98.2,-79.3 138.1,-158 "/>
<text transform="matrix(1 0 0 1 412.2661 -150.7664)" class="st14 st11 st12">R</text>
<circle class="st16" cx="419.2" cy="-158" r="14.1"/>
</svg>
