<?xml version="1.0" encoding="UTF-8"?>
<svg id="Capa_2" data-name="Capa 2" xmlns="http://www.w3.org/2000/svg" viewBox="0 0 334.5 72.68">
  <defs>
    <style>
      .cls-1, .cls-2 {
        font-size: 65.62px;
      }

      .cls-1, .cls-2, .cls-3 {
        fill: #7c7b7b;
      }

      .cls-1, .cls-2, .cls-4 {
        font-family: AvenirNextLTPro-Bold, 'Avenir Next LT Pro';
        font-weight: 700;
      }

      .cls-5 {
        fill: #909090;
      }

      .cls-2 {
        letter-spacing: -.02em;
      }

      .cls-6 {
        fill: #bbbbba;
      }

      .cls-4 {
        fill: #9c9b9b;
        font-size: 28.59px;
      }

      .cls-7 {
        fill: #e2e1e1;
      }

      .cls-8 {
        fill: #e74928;
      }
    </style>
  </defs>
  <g id="Capa_1-2" data-name="Capa 1">
    <g>
      <path class="cls-8" d="m23.21,38.95h10.83c-1.08,4.47-5,7.11-10.62,7.11-8.04,0-12.65-5.2-12.65-14.28s4.64-14.47,12.4-14.47c5.45,0,8.7,1.24,10.3,5.82l.21.59,9.22-2.83-.24-.64c-3.14-8.44-9.67-11.81-19.54-11.81C9.07,8.43,0,17.59,0,31.78s9.04,23.1,23.04,23.1,21.47-8.15,21.47-21.79v-2.72h-21.3v8.57Z"/>
      <polygon class="cls-7" points="289.69 10.06 283.26 22.71 283.37 29.77 293.32 10.01 289.69 10.06"/>
      <polygon class="cls-5" points="279.32 10.01 255.83 56.36 266.44 56.36 289.93 10.01 279.32 10.01"/>
      <polygon class="cls-6" points="265.3 10.17 241.81 56.53 252.42 56.53 275.91 10.17 265.3 10.17"/>
      <polygon class="cls-7" points="283.38 22.94 283.38 29.78 270.14 56.53 266.47 56.53 283.38 22.94"/>
      <text class="cls-1" transform="translate(67.87 56.04)"><tspan x="0" y="0">D</tspan></text>
      <text class="cls-1" transform="translate(170.15 56.67)"><tspan x="0" y="0">R</tspan></text>
      <text class="cls-2" transform="translate(213.43 56.52)"><tspan x="0" y="0">T</tspan></text>
      <text class="cls-4" transform="translate(69.24 44.91) rotate(-90) scale(1.96 1)"><tspan x="0" y="0">I</tspan></text>
      <path class="cls-3" d="m323.18,56.32l-4.68-9.33-23.04-.13-5.04,9.51h-11.48l22.77-46.38,9.85.03,22.94,46.36-11.32-.05Zm-16.44-33.23l-7.26,15.2,14.82-.06-7.56-15.14Z"/>
      <path class="cls-3" d="m159.62,56.32l-4.68-9.33-23.04-.13-5.04,9.51h-11.48l22.77-46.38,9.85.03,22.94,46.36-11.32-.05Zm-16.44-33.23l-7.26,15.2,14.82-.06-7.56-15.14Z"/>
    </g>
  </g>
</svg>