<?xml version="1.0" encoding="UTF-8"?>
<svg id="Capa_1" data-name="Capa 1" xmlns="http://www.w3.org/2000/svg" xmlns:xlink="http://www.w3.org/1999/xlink" viewBox="0 0 433.81 118.54">
  <defs>
    <style>
      .cls-1 {
        fill: #979797;
      }

      .cls-2 {
        font-family: AvenirNext-DemiBold, 'Avenir Next';
        font-size: 11.7px;
        font-weight: 300;
      }

      .cls-2, .cls-3 {
        fill: #888b8d;
      }

      .cls-4 {
        letter-spacing: .65em;
      }

      .cls-5, .cls-6 {
        fill: #e84926;
      }

      .cls-7 {
        opacity: .2;
      }

      .cls-6 {
        font-family: AvenirNextLTPro-Bold, 'Avenir Next LT Pro';
        font-size: 21.59px;
        font-weight: 700;
      }

      .cls-8 {
        letter-spacing: .68em;
      }

      .cls-9 {
        letter-spacing: .68em;
      }

      .cls-10 {
        fill: #e94a28;
      }

      .cls-11 {
        letter-spacing: .68em;
      }

      .cls-12 {
        clip-path: url(#clippath);
      }

      .cls-13 {
        letter-spacing: .68em;
      }

      .cls-14, .cls-15 {
        fill: none;
      }

      .cls-16 {
        letter-spacing: .62em;
      }

      .cls-17 {
        fill: #a8a8a8;
      }

      .cls-15 {
        stroke: #e94a28;
        stroke-miterlimit: 10;
        stroke-width: 2px;
      }

      .cls-18 {
        letter-spacing: .68em;
      }
    </style>
    <clipPath id="clippath">
      <rect class="cls-14" x="97.69" y="36.78" width="28.72" height="57.05"/>
    </clipPath>
  </defs>
  <path class="cls-5" d="m38.79,45.89c-9.17-1.92-17.09-3.58-17.09-9.7,0-4.75,4.69-7.94,11.67-7.94,8.26,0,13.31,3.5,15.45,10.71l.32,1.07,15.26-4.29-.33-1.22c-3.59-13.01-14.21-19.89-30.7-19.89C15,14.61,3.6,23.69,3.6,38.32c0,17.13,15.51,20.56,27.97,23.31,8.89,1.97,16.56,3.66,16.56,9.51,0,4.93-5.24,8.37-12.74,8.37-8.98,0-15.35-4.74-17.46-13.01l-.28-1.08L.77,69.69l.31,1.1c4.05,14.68,16.13,22.77,34,22.77,19.68,0,31.91-9.45,31.91-24.66,0-17.1-15.64-20.38-28.2-23.01"/>
  <polygon class="cls-5" points="182.02 15.11 182.02 72.89 150.85 15.11 126.41 15.11 126.41 93.65 143.78 93.65 143.78 35.76 174.94 93.65 199.39 93.65 199.39 15.11 182.02 15.11"/>
  <path class="cls-5" d="m244.54,66.53h18.31c-1.83,7.55-8.45,12.02-17.96,12.02-13.59,0-21.39-8.8-21.39-24.15s7.84-24.46,20.96-24.46c9.21,0,14.71,2.1,17.41,9.83l.35.99,15.58-4.79-.4-1.09c-5.31-14.28-16.36-19.98-33.04-19.98-23.73,0-39.06,15.5-39.06,39.48s15.29,39.06,38.95,39.06,36.3-13.77,36.3-36.83v-4.59h-36.02v14.49Z"/>
  <rect class="cls-5" x="380.15" y="14.93" width="18.14" height="78.48"/>
  <polygon class="cls-5" points="330.52 70.68 312.78 14.93 286.78 14.93 286.78 93.47 303.47 93.47 303.47 34.65 320.65 93.47 340.4 93.47 357.58 34.65 357.58 93.47 374.27 93.47 374.27 14.93 348.27 14.93 330.52 70.68"/>
  <text class="cls-2" transform="translate(0 113.19) scale(1.06 1)"><tspan class="cls-13" x="0" y="0">LABOR</tspan><tspan class="cls-16" x="78.69" y="0">A</tspan><tspan class="cls-4" x="94.16" y="0">T</tspan><tspan class="cls-18" x="108.37" y="0">O</tspan><tspan class="cls-13" x="126.21" y="0">R</tspan><tspan class="cls-9" x="141.49" y="0">I</tspan><tspan class="cls-8" x="152.7" y="0">O</tspan><tspan class="cls-9" x="170.55" y="0"> </tspan><tspan class="cls-8" x="181.38" y="0">DE</tspan><tspan class="cls-9" x="213.3" y="0"> </tspan><tspan class="cls-8" x="224.13" y="0">MET</tspan><tspan class="cls-18" x="272.43" y="0">R</tspan><tspan class="cls-13" x="287.7" y="0">O</tspan><tspan class="cls-4" x="305.55" y="0">L</tspan><tspan class="cls-11" x="319.1" y="0">OG</tspan><tspan class="cls-13" x="353.89" y="0">Í</tspan><tspan x="365.11" y="0">A</tspan></text>
  <g class="cls-7">
    <g class="cls-12">
      <polygon class="cls-1" points="126.41 36.78 126.41 48.4 103.92 93.83 97.69 93.83 126.41 36.78"/>
    </g>
  </g>
  <polygon class="cls-10" points="137.66 15.11 126.41 36.42 126.41 48.4 143.82 15.11 137.66 15.11"/>
  <polygon class="cls-17" points="95.7 15.11 55.81 93.83 73.83 93.83 113.72 15.11 95.7 15.11"/>
  <polygon class="cls-3" points="119.63 15.11 79.74 93.83 97.76 93.83 137.65 15.11 119.63 15.11"/>
  <text class="cls-6" transform="translate(411.79 22.34)"><tspan x="0" y="0">R</tspan></text>
  <circle class="cls-15" cx="418.69" cy="15.12" r="14.12"/>
</svg>