<?xml version="1.0" encoding="UTF-8"?>
<svg id="Capa_2" data-name="Capa 2" xmlns="http://www.w3.org/2000/svg" xmlns:xlink="http://www.w3.org/1999/xlink" viewBox="0 0 329.84 178.86">
  <defs>
    <style>
      .cls-1 {
        fill: #f9efed;
      }

      .cls-2 {
        clip-path: url(#clippath-2);
      }

      .cls-3 {
        clip-path: url(#clippath-1);
      }

      .cls-4 {
        clip-path: url(#clippath);
      }

      .cls-5 {
        fill: none;
      }
    </style>
    <clipPath id="clippath">
      <rect class="cls-5" width="329.84" height="178.86"/>
    </clipPath>
    <clipPath id="clippath-1">
      <path class="cls-1" d="m100.74,12.97c-9.79,4.14-19.22,9.26-28.04,15.21-5.29,3.57-10.38,7.47-15.23,11.64l24.07,25.61c9.9-8.32,20.92-15.07,32.88-20.13,2.27-.96,4.55-1.85,6.86-2.68l-11.26-33.26c-3.13,1.1-6.22,2.3-9.28,3.6Zm124.74,37.05l18.61-29.85c-4.84-2.65-9.82-5.06-14.88-7.2-13.05-5.52-26.61-9.29-40.53-11.29l-5.19,34.73c11.02,1.57,21.73,4.54,32.04,8.9,3.39,1.43,6.71,3.01,9.94,4.71ZM12.94,100.78C4.75,120.14.41,140.63,0,161.74h35.11c.4-16.39,3.81-32.28,10.16-47.29.16-.38.32-.76.48-1.13l-32.69-12.84c-.04.1-.09.19-.13.29ZM177.69,35.72L182.88.96C176.97.32,171,0,164.98,0,148.05,0,131.49,2.53,115.58,7.52l11.26,33.27c12.29-3.78,25.07-5.68,38.15-5.68,4.27,0,8.51.2,12.71.61Zm79.15,37.44c.79.79,1.56,1.58,2.33,2.39l30-18.17c.2-.12.41-.23.61-.32-2.6-3.01-5.31-5.92-8.11-8.73-7.46-7.46-15.68-14.24-24.41-20.14-2.64-1.78-5.33-3.48-8.07-5.11l-18.57,29.79c9.53,5.58,18.31,12.38,26.23,20.29ZM48.3,48.33c-7.46,7.46-14.24,15.68-20.14,24.41-4.81,7.11-9.06,14.63-12.7,22.4l32.77,12.86c6.3-12.9,14.65-24.59,24.9-34.84,1.32-1.32,2.66-2.6,4.03-3.86l-24.05-25.58c-1.63,1.51-3.23,3.04-4.8,4.61Zm268.72,52.45c-4.14-9.78-9.26-19.21-15.21-28.04-1.58-2.33-3.21-4.62-4.91-6.87-.25.34-.54.66-.88.94l-25.67,22.2c5.71,7.89,10.5,16.4,14.33,25.44,6.34,15.01,9.76,30.9,10.16,47.29h35.11c-.41-21.11-4.76-41.6-12.94-60.96Zm-24.82-38.39l-121.32,73.47c-2.55-1.01-5.32-1.56-8.22-1.56-12.31,0-22.3,9.98-22.3,22.3s9.98,22.3,22.3,22.3,22.3-9.98,22.3-22.3c0-.46-.02-.93-.05-1.39l107.29-92.81Z"/>
    </clipPath>
    <clipPath id="clippath-2">
      <path class="cls-1" d="m100.74,12.97c-9.79,4.14-19.22,9.26-28.04,15.21-5.29,3.57-10.38,7.47-15.23,11.64l24.07,25.61c9.9-8.32,20.92-15.07,32.88-20.13,2.27-.96,4.55-1.85,6.86-2.68l-11.26-33.26c-3.13,1.1-6.22,2.3-9.28,3.6Zm124.74,37.05l18.61-29.85c-4.84-2.65-9.82-5.06-14.88-7.2-13.05-5.52-26.61-9.29-40.53-11.29l-5.19,34.73c11.02,1.57,21.73,4.54,32.04,8.9,3.39,1.43,6.71,3.01,9.94,4.71ZM12.94,100.78C4.75,120.14.41,140.63,0,161.74h35.11c.4-16.39,3.81-32.28,10.16-47.29.16-.38.32-.76.48-1.13l-32.69-12.84c-.04.1-.09.19-.13.29ZM177.69,35.72L182.88.96C176.97.32,171,0,164.98,0,148.05,0,131.49,2.53,115.58,7.52l11.26,33.27c12.29-3.78,25.07-5.68,38.15-5.68,4.27,0,8.51.2,12.71.61Zm79.15,37.44c.79.79,1.56,1.58,2.33,2.39l30-18.17c.2-.12.41-.23.61-.32-2.6-3.01-5.31-5.92-8.11-8.73-7.46-7.46-15.68-14.24-24.41-20.14-2.64-1.78-5.33-3.48-8.07-5.11l-18.57,29.79c9.53,5.58,18.31,12.38,26.23,20.29ZM48.3,48.33c-7.46,7.46-14.24,15.68-20.14,24.41-4.81,7.11-9.06,14.63-12.7,22.4l32.77,12.86c6.3-12.9,14.65-24.59,24.9-34.84,1.32-1.32,2.66-2.6,4.03-3.86l-24.05-25.58c-1.63,1.51-3.23,3.04-4.8,4.61Zm268.72,52.45c-4.14-9.78-9.26-19.21-15.21-28.04-1.58-2.33-3.21-4.62-4.91-6.87-.25.34-.54.66-.88.94l-25.67,22.2c5.71,7.89,10.5,16.4,14.33,25.44,6.34,15.01,9.76,30.9,10.16,47.29h35.11c-.41-21.11-4.76-41.6-12.94-60.96Zm-24.82-38.39l-121.32,73.47c-2.55-1.01-5.32-1.56-8.22-1.56-12.31,0-22.3,9.98-22.3,22.3s9.98,22.3,22.3,22.3,22.3-9.98,22.3-22.3c0-.46-.02-.93-.05-1.39l107.29-92.81"/>
    </clipPath>
  </defs>
  <g id="Capa_1-2" data-name="Capa 1">
    <g class="cls-4">
      <g>
        <path class="cls-1" d="m100.74,12.97c-9.79,4.14-19.22,9.26-28.04,15.21-5.29,3.57-10.38,7.47-15.23,11.64l24.07,25.61c9.9-8.32,20.92-15.07,32.88-20.13,2.27-.96,4.55-1.85,6.86-2.68l-11.26-33.26c-3.13,1.1-6.22,2.3-9.28,3.6Zm124.74,37.05l18.61-29.85c-4.84-2.65-9.82-5.06-14.88-7.2-13.05-5.52-26.61-9.29-40.53-11.29l-5.19,34.73c11.02,1.57,21.73,4.54,32.04,8.9,3.39,1.43,6.71,3.01,9.94,4.71ZM12.94,100.78C4.75,120.14.41,140.63,0,161.74h35.11c.4-16.39,3.81-32.28,10.16-47.29.16-.38.32-.76.48-1.13l-32.69-12.84c-.04.1-.09.19-.13.29ZM177.69,35.72L182.88.96C176.97.32,171,0,164.98,0,148.05,0,131.49,2.53,115.58,7.52l11.26,33.27c12.29-3.78,25.07-5.68,38.15-5.68,4.27,0,8.51.2,12.71.61Zm79.15,37.44c.79.79,1.56,1.58,2.33,2.39l30-18.17c.2-.12.41-.23.61-.32-2.6-3.01-5.31-5.92-8.11-8.73-7.46-7.46-15.68-14.24-24.41-20.14-2.64-1.78-5.33-3.48-8.07-5.11l-18.57,29.79c9.53,5.58,18.31,12.38,26.23,20.29ZM48.3,48.33c-7.46,7.46-14.24,15.68-20.14,24.41-4.81,7.11-9.06,14.63-12.7,22.4l32.77,12.86c6.3-12.9,14.65-24.59,24.9-34.84,1.32-1.32,2.66-2.6,4.03-3.86l-24.05-25.58c-1.63,1.51-3.23,3.04-4.8,4.61Zm268.72,52.45c-4.14-9.78-9.26-19.21-15.21-28.04-1.58-2.33-3.21-4.62-4.91-6.87-.25.34-.54.66-.88.94l-25.67,22.2c5.71,7.89,10.5,16.4,14.33,25.44,6.34,15.01,9.76,30.9,10.16,47.29h35.11c-.41-21.11-4.76-41.6-12.94-60.96Zm-24.82-38.39l-121.32,73.47c-2.55-1.01-5.32-1.56-8.22-1.56-12.31,0-22.3,9.98-22.3,22.3s9.98,22.3,22.3,22.3,22.3-9.98,22.3-22.3c0-.46-.02-.93-.05-1.39l107.29-92.81Z"/>
        <g class="cls-3">
          <g>
            <path class="cls-1" d="m100.74,12.97c-9.79,4.14-19.22,9.26-28.04,15.21-5.29,3.57-10.38,7.47-15.23,11.64l24.07,25.61c9.9-8.32,20.92-15.07,32.88-20.13,2.27-.96,4.55-1.85,6.86-2.68l-11.26-33.26c-3.13,1.1-6.22,2.3-9.28,3.6Zm124.74,37.05l18.61-29.85c-4.84-2.65-9.82-5.06-14.88-7.2-13.05-5.52-26.61-9.29-40.53-11.29l-5.19,34.73c11.02,1.57,21.73,4.54,32.04,8.9,3.39,1.43,6.71,3.01,9.94,4.71ZM12.94,100.78C4.75,120.14.41,140.63,0,161.74h35.11c.4-16.39,3.81-32.28,10.16-47.29.16-.38.32-.76.48-1.13l-32.69-12.84c-.04.1-.09.19-.13.29ZM177.69,35.72L182.88.96C176.97.32,171,0,164.98,0,148.05,0,131.49,2.53,115.58,7.52l11.26,33.27c12.29-3.78,25.07-5.68,38.15-5.68,4.27,0,8.51.2,12.71.61Zm79.15,37.44c.79.79,1.56,1.58,2.33,2.39l30-18.17c.2-.12.41-.23.61-.32-2.6-3.01-5.31-5.92-8.11-8.73-7.46-7.46-15.68-14.24-24.41-20.14-2.64-1.78-5.33-3.48-8.07-5.11l-18.57,29.79c9.53,5.58,18.31,12.38,26.23,20.29ZM48.3,48.33c-7.46,7.46-14.24,15.68-20.14,24.41-4.81,7.11-9.06,14.63-12.7,22.4l32.77,12.86c6.3-12.9,14.65-24.59,24.9-34.84,1.32-1.32,2.66-2.6,4.03-3.86l-24.05-25.58c-1.63,1.51-3.23,3.04-4.8,4.61Zm268.72,52.45c-4.14-9.78-9.26-19.21-15.21-28.04-1.58-2.33-3.21-4.62-4.91-6.87-.25.34-.54.66-.88.94l-25.67,22.2c5.71,7.89,10.5,16.4,14.33,25.44,6.34,15.01,9.76,30.9,10.16,47.29h35.11c-.41-21.11-4.76-41.6-12.94-60.96Zm-24.82-38.39l-121.32,73.47c-2.55-1.01-5.32-1.56-8.22-1.56-12.31,0-22.3,9.98-22.3,22.3s9.98,22.3,22.3,22.3,22.3-9.98,22.3-22.3c0-.46-.02-.93-.05-1.39l107.29-92.81"/>
            <g class="cls-2">
              <path class="cls-1" d="m376.41,13.01L23.99-85.67-46.45,165.89l352.42,98.68L376.41,13.01Z"/>
            </g>
          </g>
        </g>
      </g>
    </g>
  </g>
</svg>