<?xml version="1.0" encoding="UTF-8"?>
<svg id="Capa_2" data-name="Capa 2" xmlns="http://www.w3.org/2000/svg" viewBox="0 0 61.79 32.47">
  <defs>
    <style>
      .cls-1 {
        fill: #e84926;
      }

      .cls-2 {
        fill: #888b8d;
      }

      .cls-3 {
        fill: #a8a8a8;
      }
    </style>
  </defs>
  <g id="Capa_1-2" data-name="Capa 1">
    <g>
      <path class="logo-sii-cls-1" d="m17.16,12.82c-4.14-.79-7.71-1.47-7.71-3.98,0-1.95,2.12-3.25,5.27-3.25,3.73,0,6.01,1.44,6.97,4.39l.14.44,6.89-1.76-.15-.5C26.95,2.82,22.16,0,14.72,0,6.42,0,1.27,3.72,1.27,9.71c0,7.02,7,8.42,12.63,9.55,4.01.81,7.48,1.5,7.48,3.9,0,2.02-2.36,3.43-5.75,3.43-4.05,0-6.93-1.94-7.88-5.33l-.12-.44-7.62,1.75.14.45c1.83,6.02,7.28,9.33,15.35,9.33,8.89,0,14.4-3.87,14.4-10.11,0-7.01-7.06-8.35-12.73-9.43"/>
      <polygon class="logo-sii-cls-3" points="42.85 .2 24.84 32.47 32.98 32.47 50.99 .2 42.85 .2"/>
      <polygon class="logo-sii-cls-2" points="53.65 .2 35.65 32.47 43.78 32.47 61.79 .2 53.65 .2"/>
    </g>
  </g>
</svg>