<?xml version="1.0" encoding="UTF-8"?>
<svg id="Capa_2" data-name="Capa 2" xmlns="http://www.w3.org/2000/svg" xmlns:xlink="http://www.w3.org/1999/xlink" viewBox="0 0 73.96 73.96">
  <defs>
    <style>
      .cls-1 {
        fill: #fdfefc;
      }

      .cls-2 {
        clip-path: url(#clippath);
      }

      .cls-3 {
        fill: none;
      }
    </style>
    <clipPath id="clippath">
      <rect class="cls-3" width="73.96" height="73.96"/>
    </clipPath>
  </defs>
  <g id="Capa_1-2" data-name="Capa 1">
    <g>
      <g class="cls-2">
        <path class="cls-1" d="m37.07,0C16.63,0,0,16.63,0,37.07s16.63,37.07,37.07,37.07,37.07-16.63,37.07-37.07S57.51,0,37.07,0Zm0,71.54c-19.03,0-34.47-15.44-34.47-34.47S18.04,2.6,37.07,2.6s34.47,15.44,34.47,34.47-15.44,34.47-34.47,34.47Z"/>
      </g>
      <path class="cls-1" d="m37.07,19.39s-14.41.1-11.23,15.42c.94,4.54,11.23,15.09,11.23,15.09,0,0,10.29-10.55,11.23-15.09,3.18-15.31-11.23-15.42-11.23-15.42Zm0,14.65c-.53,0-1.04-.1-1.53-.3-.49-.2-.93-.49-1.3-.87s-.66-.81-.86-1.3c-.2-.49-.31-1.01-.31-1.54,0-.53.1-1.04.31-1.53s.49-.92.87-1.3.81-.66,1.3-.86,1-.31,1.53-.3c.53,0,1.04.1,1.53.31.49.2.92.49,1.3.87.38.38.66.81.86,1.3.2.49.3,1.01.3,1.54s-.1,1.04-.31,1.53-.49.92-.86,1.3c-.38.38-.81.66-1.3.86s-.99.3-1.53.3Z"/>
      <path class="cls-1" d="m45.35,42.38c-.28.37-.56.73-.85,1.09,3.47.98,5.76,2.64,5.76,4.51,0,3.03-5.91,5.47-13.19,5.47s-13.19-2.44-13.19-5.47c0-1.87,2.28-3.52,5.76-4.51-.3-.36-.58-.72-.86-1.09-3.58,1.11-6.19,3.01-6.19,5.59,0,4.4,7.47,6.77,14.48,6.77s14.48-2.37,14.48-6.77c0-2.59-2.61-4.48-6.2-5.59Z"/>
    </g>
  </g>
</svg>